# xmcd
#
# Track frame offsets: 
#        150
#        17008
#        39054
#        54071
#        71135
#        88369
#        103727
#        119085
#        138710
#        156456
#        173690
#        189729
#        207625
#        241866
#        281740
#        313920
#        337974
#
# Disc length: 4778 seconds
#
# Revision: 3
# Processed by: cddbd v1.5.2PL0 Copyright (c) Steve Scherf et al.
# Submitted via: ExactAudioCopy v0.99pb5
#
DISCID=0212a811
DTITLE=Britney Spears - In The Zone
DYEAR=2003
DGENRE=Pop
TTITLE0=01 Me Against The Musiñ (Feat.Madonna)
TTITLE1=02 I Got That (Boom Boom)
TTITLE2=03 Showdown
TTITLE3=04 Breathe On Me
TTITLE4=05 Early Morning
TTITLE5=06 Toxic
TTITLE6=07 Outrageous
TTITLE7=08 Touch Of My Hand
TTITLE8=09 The Hook Up
TTITLE9=10 Shadow
TTITLE10=11 Brave New Girl
TTITLE11=12 Everytime
TTITLE12=13 Me Against The Musiñ (Pasengers vs. The Club Mix)
TTITLE13=14 Me Against The Musiñ (Gabriel And Dresden Mix)
TTITLE14=15 Me Against The Musiñ (Terminalhead Vocal Mix)
TTITLE15=16 Me Against The Musiñ (Club Killer Mix)
TTITLE16=17 Me Against The Musiñ (Rishi Richs Mix)
EXTD=YEAR: 2003
EXTT0=
EXTT1=
EXTT2=
EXTT3=
EXTT4=
EXTT5=
EXTT6=
EXTT7=
EXTT8=
EXTT9=
EXTT10=
EXTT11=
EXTT12=
EXTT13=
EXTT14=
EXTT15=
EXTT16=
PLAYORDER=
